<svg height="462pt" viewBox="-10 0 462 462.88819" width="462pt" xmlns="http://www.w3.org/2000/svg"><path d="m225.652344 95.992188h44.441406c3.90625 0 7.242188-2.824219 7.886719-6.679688l7.503906-44.992188c.964844-3.128906 1.46875-6.382812 1.496094-9.65625 0-19.144531-15.519531-34.664062-34.664063-34.664062-19.144531 0-34.664062 15.519531-34.664062 34.664062v53.328126c0 4.417968 3.582031 8 8 8zm8-16v-33.105469h35.199218l-5.519531 33.105469zm18.664062-64c8.851563.015624 16.476563 6.230468 18.28125 14.894531h-36.554687c1.804687-8.660157 9.425781-14.871094 18.273437-14.894531zm0 0"/><path d="m66.445312 272.007812c11.050782-.011718 20.664063-7.570312 23.285157-18.304687 11.699219-46.746094 49.472656-82.449219 96.800781-91.496094l-4.742188 28.433594c-15.558593-4.40625-32.285156-.070313-43.746093 11.335937l-7.253907 7.253907 11.3125 11.3125 7.253907-7.253907c7.808593-7.773437 19.371093-10.410156 29.777343-6.792968l-9.375 56.199218c0 .207032.046876.417969 0 .632813-.050781.214844-.136718.433594-.136718.664063v26.464843c1.09375 62.949219-45.382813 116.625-107.839844 124.542969-9.503906 1.039062-17.484375 7.617188-20.316406 16.75-2.832032 9.132812.027344 19.074219 7.273437 25.304688 5.019531 4.417968 11.6875 6.476562 18.320313 5.65625 81.628906-9.882813 144.675781-76.445313 150.128906-158.488282 72.183594 2.390625 139.203125 38.035156 181.535156 96.554688 7.171875 9.984375 20.746094 12.902344 31.386719 6.742187 5.882813-3.394531 10.058594-9.117187 11.492187-15.757812 1.429688-6.640625-.011718-13.578125-3.972656-19.097657-41.273437-57.015624-102.386718-96.523437-171.320312-110.742187l14.3125-64.320313 20 43.375c3.96875 8.472657 12.46875 13.890626 21.824218 13.910157.894532.015625 1.789063-.027344 2.679688-.132813 10.257812-1.164062 18.628906-8.742187 20.800781-18.832031l20.644531-96.296875c.347657-1.664062.511719-3.359375.496094-5.058594-.023437-11.316406-7.917968-21.09375-18.972656-23.503906-.539062-.109375-1.074219-.09375-1.601562-.175781h5.953124v-15.566407l69.472657 23.199219c.816406.257813 1.667969.378907 2.527343.367188 4.417969 0 8-3.582031 8-8v-80c0-2.570313-1.234374-4.984375-3.320312-6.488281-2.085938-1.503907-4.769531-1.914063-7.207031-1.101563l-70.777344 23.589844h-30.695313c-4.417968 0-8 3.582031-8 8v32c0 4.417969 3.582032 8 8 8h16v16h3.078126c-9.851563 1.484375-17.761719 8.898437-19.878907 18.632812l-5.601562 25.929688-16.632813-36.066407c-.058594-1.566406-.589844-3.082031-1.527344-4.34375-1.515624-1.914062-3.828124-3.03125-6.269531-3.03125h-88c-.582031.054688-1.152343.175782-1.707031.367188-74.929688 4.566406-138.320312 57.039062-156.796875 129.800781-.453125 1.882813-.683594 3.816407-.6875 5.753907-.011719 13.277343 10.742187 24.054687 24.023437 24.078124zm350-172.214843-56-18.671875v-20.464844l56-18.671875zm-88-36.90625h16v16h-16zm-263.320312 383.945312c-2.132812.265625-4.269531-.410156-5.863281-1.847656-1.753907-1.519531-2.777344-3.714844-2.816407-6.03125-.003906-4.1875 3.1875-7.683594 7.359376-8.066406 67.082031-8.492188 118.355468-63.960938 121.558593-131.503907 4.785157 2.894532 10.25 4.46875 15.839844 4.5625-5.316406 74.058594-62.367187 133.964844-136.078125 142.886719zm359.519531-64.800781c1.324219 1.824219 1.804688 4.128906 1.320313 6.328125-.660156 3.074219-3.0625 5.476563-6.136719 6.140625-3.074219.660156-6.25-.539062-8.121094-3.066406-46.882812-64.871094-122.019531-103.335938-202.054687-103.441406h-8c-8.835938 0-16-7.164063-16-16h24.511718c84.976563.269531 164.695313 41.167968 214.480469 110.03125zm-365.960937-136.085938c16.894531-66.410156 75.019531-114.105468 143.449218-117.714843 2.480469-.152344 4.953126-.222657 7.511719-.222657h28.28125l-5.242187 20.9375 15.519531 3.886719 6.199219-24.800781h29.402344l25.777343 55.90625c1.441407 3.121094 4.714844 4.972656 8.132813 4.59375 3.417968-.375 6.214844-2.890625 6.945312-6.25l10.640625-49.378906c.976563-4.261719 5.203125-6.949219 9.480469-6.027344 4.277344.917969 7.023438 5.105469 6.160156 9.398438l-20.640625 96.328124c-.753906 3.382813-3.578125 5.914063-7.023437 6.285157h-.800782c-3.125-.003907-5.964843-1.804688-7.296874-4.628907l-29.9375-64.882812c-1.429688-3.121094-4.695313-4.980469-8.113282-4.617188-3.414062.363282-6.21875 2.863282-6.964844 6.21875l-18.929687 85.03125h-64.140625l7.75-46.472656c22.128906.347656 41.179688-15.550781 44.800781-37.382812l.65625-3.929688-15.777343-2.636718-.65625 3.933593c-2.167969 13.144531-13.105469 23.066407-26.398438 23.945313l6.566406-39.402344c.414063-2.460938-.347656-4.972656-2.054687-6.789062-1.695313-1.832032-4.15625-2.757813-6.640625-2.488282-58.453125 6.054688-106.871094 48.042969-121.136719 105.054688-.847656 3.605468-4.058594 6.15625-7.757813 6.167968-4.417968-.082031-7.964843-3.664062-8-8.078124.003907-.671876.085938-1.335938.238282-1.984376zm0 0"/><path d="m8.445312 374.886719h112c4.417969 0 8-3.582031 8-8v-72c0-4.417969-3.582031-8-8-8h-112c-4.417968 0-8 3.582031-8 8v72c0 4.417969 3.582032 8 8 8zm8-72h96v56h-96zm0 0"/><path d="m322.445312 246.886719c-6.238281 0-11.90625-3.628907-14.519531-9.292969l-48-104 29.054688-13.410156 27.886719 60.417968 10.585937-49.417968c1.847656-8.644532 10.355469-14.148438 19-12.296875 8.640625 1.851562 14.148437 10.359375 12.296875 19l-20.648438 96.351562c-1.445312 6.738281-7.035156 11.792969-13.882812 12.554688-.589844.0625-1.179688.09375-1.773438.09375zm0 0" fill="#f29a2b"/><path d="m209.5625 296.007812h-7.917969c-13.253906 0-24-10.746093-24-24v-8h32c87.761719.011719 170.175781 42.183594 221.519531 113.359376 4.734376 7.15625 2.980469 16.777343-3.976562 21.800781-6.957031 5.023437-16.636719 3.664062-21.945312-3.078125-45.332032-62.851563-118.105469-100.085938-195.597657-100.082032zm0 0" fill="#4e4e4e"/><path d="m177.644531 272.007812c0 13.253907 10.746094 24 24 24h7.917969c-1.890625 81.152344-62.898438 148.691407-143.4375 158.800782-4.484375.472656-8.960938-.96875-12.328125-3.96875s-5.308594-7.28125-5.351563-11.792969v-.320313c.125-8.105468 6.257813-14.859374 14.320313-15.757812 66.421875-8.621094 115.828125-65.667969 114.878906-132.640625zm0 0" fill="#4e4e4e"/><path d="m209.644531 120.007812v32c-60.390625.078126-113 41.183594-127.679687 99.761719-1.960938 7.824219-9.445313 12.96875-17.457032 11.992188-8.007812-.976563-14.039062-7.765625-14.0625-15.832031.003907-1.324219.167969-2.636719.480469-3.921876 18.238281-72.824218 83.648438-123.925781 158.71875-124zm0 0" fill="#fecf2c"/><path d="m289.644531 120.007812-32 144h-80l24-144zm0 0" fill="#fecf2c"/><path d="m252.285156 8.007812c7.078125-.019531 13.871094 2.777344 18.886719 7.777344 5.011719 4.996094 7.832031 11.785156 7.832031 18.863282.003906 1.425781-.15625 2.847656-.480468 4.238281h-52.878907v-4.238281c-.003906-14.714844 11.925781-26.644532 26.640625-26.640626zm0 0" fill="#cf631b"/><path d="m225.644531 38.886719h52.878907c-.179688 1.226562-.472657 2.429687-.878907 3.601562l-7.519531 45.519531h-44.480469zm0 0" fill="#eecfb1"/><path d="m320.445312 54.886719h32v32h-32zm0 0" fill="#0f71c7"/><path d="m424.445312 30.886719v80l-72-24v-32zm0 0" fill="#168de2"/><path d="m336.445312 86.886719h16v24h-16zm0 0" fill="#4e4e4e"/><g fill="#0f71c7"><path d="m256.445312 120.007812-8.242187 32.800782-15.519531-3.839844 7.28125-28.960938zm0 0"/><path d="m142.101562 220.542969-11.3125-11.3125 7.253907-7.253907c12.414062-12.417968 30.933593-16.4375 47.378906-10.289062 8.050781 3.007812 17.027344 2.261719 24.472656-2.035156 7.445313-4.296875 12.582031-11.695313 14.003907-20.171875l.65625-3.9375 15.777343 2.640625-.65625 3.929687c-2.210937 13.195313-10.203125 24.710938-21.789062 31.398438-11.589844 6.6875-25.558594 7.847656-38.089844 3.160156-10.550781-3.933594-22.425781-1.359375-30.402344 6.59375zm0 0"/><path d="m8.445312 294.886719h112v72h-112zm0 0"/></g><path d="m225.652344 95.992188h44.441406c3.90625 0 7.242188-2.824219 7.886719-6.679688l7.503906-44.992188c.964844-3.128906 1.46875-6.382812 1.496094-9.65625 0-19.144531-15.519531-34.664062-34.664063-34.664062-19.144531 0-34.664062 15.519531-34.664062 34.664062v53.328126c0 4.417968 3.582031 8 8 8zm8-16v-33.105469h35.199218l-5.519531 33.105469zm18.664062-64c8.851563.015624 16.476563 6.230468 18.28125 14.894531h-36.554687c1.804687-8.660157 9.425781-14.871094 18.273437-14.894531zm0 0"/><path d="m66.445312 272.007812c11.050782-.011718 20.664063-7.570312 23.285157-18.304687 11.699219-46.746094 49.472656-82.449219 96.800781-91.496094l-4.742188 28.433594c-15.558593-4.40625-32.285156-.070313-43.746093 11.335937l-7.253907 7.253907 11.3125 11.3125 7.253907-7.253907c7.808593-7.773437 19.371093-10.410156 29.777343-6.792968l-9.375 56.199218c0 .207032.046876.417969 0 .632813-.050781.214844-.136718.433594-.136718.664063v26.464843c1.09375 62.949219-45.382813 116.625-107.839844 124.542969-9.503906 1.039062-17.484375 7.617188-20.316406 16.75-2.832032 9.132812.027344 19.074219 7.273437 25.304688 5.019531 4.417968 11.6875 6.476562 18.320313 5.65625 81.628906-9.882813 144.675781-76.445313 150.128906-158.488282 72.183594 2.390625 139.203125 38.035156 181.535156 96.554688 7.171875 9.984375 20.746094 12.902344 31.386719 6.742187 5.882813-3.394531 10.058594-9.117187 11.492187-15.757812 1.429688-6.640625-.011718-13.578125-3.972656-19.097657-41.273437-57.015624-102.386718-96.523437-171.320312-110.742187l14.3125-64.320313 20 43.375c3.96875 8.472657 12.46875 13.890626 21.824218 13.910157.894532.015625 1.789063-.027344 2.679688-.132813 10.257812-1.164062 18.628906-8.742187 20.800781-18.832031l20.644531-96.296875c.347657-1.664062.511719-3.359375.496094-5.058594-.023437-11.316406-7.917968-21.09375-18.972656-23.503906-.539062-.109375-1.074219-.09375-1.601562-.175781h5.953124v-15.566407l69.472657 23.199219c.816406.257813 1.667969.378907 2.527343.367188 4.417969 0 8-3.582031 8-8v-80c0-2.570313-1.234374-4.984375-3.320312-6.488281-2.085938-1.503907-4.769531-1.914063-7.207031-1.101563l-70.777344 23.589844h-30.695313c-4.417968 0-8 3.582031-8 8v32c0 4.417969 3.582032 8 8 8h16v16h3.078126c-9.851563 1.484375-17.761719 8.898437-19.878907 18.632812l-5.601562 25.929688-16.632813-36.066407c-.058594-1.566406-.589844-3.082031-1.527344-4.34375-1.515624-1.914062-3.828124-3.03125-6.269531-3.03125h-88c-.582031.054688-1.152343.175782-1.707031.367188-74.929688 4.566406-138.320312 57.039062-156.796875 129.800781-.453125 1.882813-.683594 3.816407-.6875 5.753907-.011719 13.277343 10.742187 24.054687 24.023437 24.078124zm350-172.214843-56-18.671875v-20.464844l56-18.671875zm-88-36.90625h16v16h-16zm-263.320312 383.945312c-2.132812.265625-4.269531-.410156-5.863281-1.847656-1.753907-1.519531-2.777344-3.714844-2.816407-6.03125-.003906-4.1875 3.1875-7.683594 7.359376-8.066406 67.082031-8.492188 118.355468-63.960938 121.558593-131.503907 4.785157 2.894532 10.25 4.46875 15.839844 4.5625-5.316406 74.058594-62.367187 133.964844-136.078125 142.886719zm359.519531-64.800781c1.324219 1.824219 1.804688 4.128906 1.320313 6.328125-.660156 3.074219-3.0625 5.476563-6.136719 6.140625-3.074219.660156-6.25-.539062-8.121094-3.066406-46.882812-64.871094-122.019531-103.335938-202.054687-103.441406h-8c-8.835938 0-16-7.164063-16-16h24.511718c84.976563.269531 164.695313 41.167968 214.480469 110.03125zm-365.960937-136.085938c16.894531-66.410156 75.019531-114.105468 143.449218-117.714843 2.480469-.152344 4.953126-.222657 7.511719-.222657h28.28125l-5.242187 20.9375 15.519531 3.886719 6.199219-24.800781h29.402344l25.777343 55.90625c1.441407 3.121094 4.714844 4.972656 8.132813 4.59375 3.417968-.375 6.214844-2.890625 6.945312-6.25l10.640625-49.378906c.976563-4.261719 5.203125-6.949219 9.480469-6.027344 4.277344.917969 7.023438 5.105469 6.160156 9.398438l-20.640625 96.328124c-.753906 3.382813-3.578125 5.914063-7.023437 6.285157h-.800782c-3.125-.003907-5.964843-1.804688-7.296874-4.628907l-29.9375-64.882812c-1.429688-3.121094-4.695313-4.980469-8.113282-4.617188-3.414062.363282-6.21875 2.863282-6.964844 6.21875l-18.929687 85.03125h-64.140625l7.75-46.472656c22.128906.347656 41.179688-15.550781 44.800781-37.382812l.65625-3.929688-15.777343-2.636718-.65625 3.933593c-2.167969 13.144531-13.105469 23.066407-26.398438 23.945313l6.566406-39.402344c.414063-2.460938-.347656-4.972656-2.054687-6.789062-1.695313-1.832032-4.15625-2.757813-6.640625-2.488282-58.453125 6.054688-106.871094 48.042969-121.136719 105.054688-.847656 3.605468-4.058594 6.15625-7.757813 6.167968-4.417968-.082031-7.964843-3.664062-8-8.078124.003907-.671876.085938-1.335938.238282-1.984376zm0 0"/><path d="m8.445312 374.886719h112c4.417969 0 8-3.582031 8-8v-72c0-4.417969-3.582031-8-8-8h-112c-4.417968 0-8 3.582031-8 8v72c0 4.417969 3.582032 8 8 8zm8-72h96v56h-96zm0 0"/></svg>